<svg xmlns="http://www.w3.org/2000/svg" xmlns:xlink="http://www.w3.org/1999/xlink" width="1080" zoomAndPan="magnify" viewBox="0 0 810 809.999993" height="1080" preserveAspectRatio="xMidYMid meet" version="1.0"><path fill="#00adb5" d="M 728.847656 129.921875 C 722.050781 123.128906 714.964844 116.746094 707.617188 110.753906 C 717.125 89.996094 726.796875 69.328125 736.71875 48.78125 C 738.898438 44.265625 741.09375 39.761719 743.316406 35.265625 C 748.648438 24.507812 733.839844 16.238281 726.589844 25.355469 C 709.960938 46.296875 695.078125 68.785156 680.066406 90.964844 C 636.320312 63.414062 585.628906 48.660156 532.65625 48.660156 C 458.535156 48.660156 388.871094 77.523438 336.460938 129.933594 C 308.085938 158.308594 286.636719 191.742188 272.917969 228.203125 C 243.085938 240.546875 213.074219 252.441406 182.808594 263.699219 C 164.28125 270.59375 145.675781 277.246094 126.960938 283.628906 C 109.003906 289.75 90.988281 296.1875 72.511719 300.5625 C 62.015625 303.046875 51.289062 304.894531 40.488281 305.273438 C 37.1875 305.394531 23.121094 306.914062 22.6875 301.789062 C 22.394531 298.328125 26.085938 293.898438 27.917969 291.214844 C 30.601562 287.308594 33.402344 283.5 36.332031 279.765625 C 42.5625 271.828125 49.3125 264.242188 56.640625 257.292969 C 60.582031 253.5625 62.96875 247.851562 59.527344 242.859375 C 56.628906 238.65625 49.445312 237.300781 45.503906 241.035156 C 31.25 254.558594 17.660156 269.550781 7.730469 286.601562 C 2.886719 294.917969 0.0546875 305.761719 5.296875 314.585938 C 9.855469 322.273438 18.671875 324.964844 27.082031 325.5625 C 48.183594 327.050781 69.039062 322.609375 89.195312 316.84375 C 109.386719 311.070312 129.273438 304.078125 149.082031 297.144531 C 188.0625 283.5 226.609375 268.683594 264.839844 253.09375 C 258.46875 276.605469 255.167969 301.117188 255.167969 326.125 C 255.167969 382.367188 271.808594 436.054688 302.722656 481.582031 C 298.523438 489.875 294.34375 498.179688 290.199219 506.492188 C 260.195312 566.652344 230.722656 627.472656 206.386719 690.191406 C 198.644531 710.15625 190.9375 730.582031 186.511719 751.578125 C 184.261719 762.226562 180.996094 779.191406 191.382812 786.835938 C 200.828125 793.78125 210.835938 786.746094 217.882812 780.160156 C 228.421875 770.292969 237.703125 759.121094 246.789062 747.941406 C 277.324219 710.339844 305.589844 670.835938 333.714844 631.414062 C 350.539062 607.824219 367.214844 584.140625 383.789062 560.367188 C 427.859375 588.492188 479.085938 603.582031 532.632812 603.582031 C 606.75 603.582031 676.417969 574.714844 728.828125 522.308594 C 781.234375 469.902344 810.097656 400.222656 810.097656 326.117188 C 810.097656 252.007812 781.253906 182.332031 728.847656 129.921875 Z M 273.675781 322.402344 C 274.066406 294.996094 278.667969 268.671875 286.84375 244.019531 C 319.234375 230.527344 351.410156 216.523438 383.441406 202.226562 C 417.199219 187.160156 450.808594 171.769531 484.382812 156.3125 C 455.476562 201.511719 428.707031 248.132812 402.449219 294.851562 C 371.394531 350.117188 341.402344 405.988281 312.527344 462.410156 C 287.289062 421.824219 272.949219 373.78125 273.675781 322.402344 Z M 212.519531 731.410156 C 212.703125 730.855469 212.84375 730.421875 212.519531 731.410156 Z M 199.972656 769.421875 C 199.136719 769.695312 198.558594 769.726562 199.972656 769.421875 Z M 205.125 771.214844 C 205.082031 771.171875 205.0625 771.09375 205.027344 771.03125 C 205.082031 771.074219 205.125 771.117188 205.160156 771.160156 C 205.410156 771.507812 205.539062 771.714844 205.125 771.214844 Z M 204.921875 770.421875 C 204.921875 770.398438 204.921875 770.367188 204.921875 770.34375 C 205.136719 770.488281 205.09375 770.496094 204.921875 770.421875 Z M 349.945312 574.683594 C 318.625 619.253906 287.09375 663.738281 254.027344 707.027344 C 242.988281 721.476562 231.808594 735.835938 219.921875 749.601562 C 215.851562 754.3125 211.695312 758.980469 207.285156 763.375 C 207.039062 763.625 206.777344 763.886719 206.515625 764.136719 C 205.910156 764.679688 205.320312 765.222656 204.714844 765.765625 C 204.824219 764.527344 204.941406 763.648438 204.605469 765.863281 C 204.605469 765.863281 204.59375 765.875 204.59375 765.875 C 204.789062 764.429688 204.855469 762.964844 205.0625 761.519531 C 205.539062 758.046875 206.234375 754.605469 207.015625 751.1875 C 207.960938 747.050781 209.066406 742.957031 210.25 738.886719 C 210.902344 736.652344 211.585938 734.425781 212.269531 732.199219 C 212.3125 732.070312 212.378906 731.84375 212.453125 731.613281 C 212.59375 731.179688 212.734375 730.746094 212.878906 730.3125 C 213.3125 728.988281 213.746094 727.664062 214.191406 726.339844 C 233.425781 669.144531 259.769531 614.097656 285.941406 559.835938 C 295.722656 539.558594 305.699219 519.367188 315.816406 499.253906 C 322.230469 507.253906 329.101562 514.960938 336.449219 522.308594 C 339.304688 525.164062 342.203125 527.933594 345.15625 530.644531 C 349.257812 534.402344 355.730469 533.695312 358.910156 529.136719 C 358.953125 529.070312 358.996094 529.015625 359.039062 528.953125 C 361.675781 525.164062 361.058594 520.03125 357.660156 516.902344 C 345.722656 505.941406 334.824219 493.867188 325.097656 480.863281 C 347.175781 437.476562 369.972656 394.449219 393.308594 351.734375 C 411.535156 318.375 430.128906 285.226562 449.210938 252.355469 C 457.894531 237.410156 466.679688 222.515625 475.601562 207.71875 C 479.703125 200.914062 483.839844 194.117188 488.019531 187.34375 C 489.09375 185.609375 490.167969 183.859375 491.242188 182.125 C 491.601562 181.546875 491.949219 180.972656 492.308594 180.410156 C 492.40625 180.246094 492.492188 180.105469 492.566406 179.996094 C 492.652344 179.855469 492.773438 179.671875 492.925781 179.421875 C 495 176.097656 497.082031 172.777344 499.179688 169.46875 C 506.167969 158.425781 513.277344 147.464844 520.59375 136.628906 C 523.601562 132.167969 524.273438 125.972656 519.652344 122.238281 C 515.546875 118.914062 508.394531 119.839844 505.375 124.308594 C 505.246094 124.503906 505.117188 124.699219 504.984375 124.898438 C 436 156.710938 366.984375 188.507812 297.015625 218.085938 C 337.894531 128.621094 428.097656 66.953125 533.054688 67.117188 C 583.140625 67.191406 629.9375 81.574219 669.578125 106.367188 C 639.46875 150.425781 609.617188 194.671875 579.722656 238.894531 C 541.71875 295.101562 503.703125 351.308594 465.472656 407.363281 C 427.273438 463.34375 388.902344 519.214844 349.945312 574.683594 Z M 532.65625 585.125 C 481.875 585.125 434.480469 570.429688 394.460938 545.070312 C 412.011719 519.8125 429.46875 494.488281 446.855469 469.128906 C 486.53125 411.292969 525.902344 353.253906 565.207031 295.167969 C 599.402344 244.636719 633.507812 194.042969 667.808594 143.589844 C 671.054688 138.824219 674.289062 134.046875 677.527344 129.269531 C 667.917969 150.675781 658.464844 172.136719 649.042969 193.597656 C 618.875 262.265625 589.414062 331.304688 562.015625 401.125 C 551.53125 427.828125 541.261719 454.660156 532.21875 481.894531 C 526.988281 497.65625 519.726562 515.414062 519.738281 532.339844 C 519.738281 539.015625 522.820312 545.898438 530.253906 546.753906 C 539.851562 547.863281 549.523438 540.957031 556.242188 534.933594 C 579.625 513.972656 596.460938 485.488281 612.601562 458.925781 C 655.664062 388.042969 691.929688 313.109375 728.804688 238.90625 C 732.484375 231.503906 736.164062 224.101562 739.875 216.707031 C 746.019531 204.453125 727.566406 197.40625 721.652344 209.207031 C 686.058594 280.265625 651.527344 351.949219 612.199219 421.054688 C 595.320312 450.730469 578.960938 479.226562 556.96875 505.820312 C 555.039062 508.152344 553.050781 510.453125 551.011719 512.703125 C 550.152344 513.644531 549.273438 514.578125 548.394531 515.492188 C 547.882812 516.023438 547.363281 516.535156 546.851562 517.066406 C 546.734375 517.183594 546.636719 517.292969 546.539062 517.378906 C 546.496094 517.425781 546.441406 517.46875 546.363281 517.53125 C 544.703125 519.03125 543.042969 520.527344 541.273438 521.894531 C 541.242188 521.917969 541.21875 521.941406 541.1875 521.960938 C 541.339844 521.234375 541.5 520.507812 541.664062 519.78125 C 542.554688 515.828125 543.597656 511.921875 544.691406 508.023438 C 545.277344 505.9375 545.886719 503.867188 546.515625 501.804688 C 546.863281 500.652344 547.222656 499.492188 547.582031 498.339844 C 547.710938 497.917969 548.242188 496.222656 548.449219 495.5625 C 556.578125 470.269531 565.980469 445.367188 575.574219 420.597656 C 601.703125 353.167969 629.96875 286.550781 658.875 220.269531 C 672.28125 189.539062 685.796875 158.828125 699.636719 128.273438 C 755.875 175.816406 791.664062 246.851562 791.664062 326.09375 C 791.664062 468.933594 675.472656 585.125 532.65625 585.125 Z M 534.425781 525.859375 C 534.175781 525.96875 533.945312 526.085938 533.707031 526.207031 C 533.695312 526.207031 533.695312 526.207031 533.6875 526.207031 C 533.980469 526.054688 534.230469 525.945312 534.425781 525.859375 Z M 533.414062 526.347656 C 533.394531 526.359375 533.359375 526.367188 533.339844 526.390625 C 533.359375 526.367188 533.382812 526.359375 533.414062 526.347656 Z M 533.414062 526.347656 " fill-opacity="1" fill-rule="nonzero"/><path fill="#00adb5" d="M 82.476562 221.429688 C 88.511719 221.429688 93.40625 216.535156 93.40625 210.5 C 93.40625 204.464844 88.511719 199.566406 82.476562 199.566406 C 76.441406 199.566406 71.546875 204.464844 71.546875 210.5 C 71.546875 216.535156 76.441406 221.429688 82.476562 221.429688 Z M 82.476562 221.429688 " fill-opacity="1" fill-rule="nonzero"/></svg>